{"title":"Miss Violence (2013)","uid":11227697,"size":1511233006,"categoryP":"video","categoryS":"movies","magnet":"?xt=urn:btih:e276d66ab780d7d337a8e4e8fefa45c7de8b1cf2&amp;dn=Miss+Violence+%282013%29&amp;tr=udp%3A%2F%2Ftracker.openbittorrent.com%3A80&amp;tr=udp%3A%2F%2Fopen.demonii.com%3A1337&amp;tr=udp%3A%2F%2Ftracker.coppersurfer.tk%3A6969&amp;tr=udp%3A%2F%2Fexodus.desync.com%3A6969","seeders":13,"leechers":0,"uploader":"cavallone","files":1,"time":1413475795,"description":"Plot: On her birthday, 11-year-old Angeliki jumps off the balcony to her death with a smile on her face. An investigation is started as to the reason for this apparent suicide, but the family keeps insisting that it was an accident.\n\nSpecs: \n\nGeneral\nUnique ID : 222492706110326850001825644204015159983 (0xA7628958C198ED5FA390109B7FD30AAF)\nComplete name : Miss.Violence.2013.DVDRip.x264-HANDJOB.mkv\nFormat : Matroska\nFormat version : Version 4 / Version 2\nFile size : 1.41 GiB\nDuration : 1h 34mn\nOverall bit rate : 2 122 Kbps\nEncoded date : UTC 2014-07-30 14:13:32\nWriting application : mkvmerge v6.9.1 ('Blue Panther') 32bit built on Apr 18 2014 18:15:44\nWriting library : Lavf55.12.0\n\nVideo\nID : 1\nFormat : AVC\nFormat/Info : Advanced Video Codec\nFormat profile : &lt;a class=&quot;__cf_email__&quot; href=&quot;/cdn-cgi/l/email-protection&quot; data-cfemail=&quot;044c6d636c4448372a35&quot;&gt;[email&amp;#160;protected]&lt;/a&gt;&lt;script cf-hash='f9e31' type=&quot;text/javascript&quot;&gt;\n/* &lt;![CDATA[ */!function(){try{var t=&quot;currentScript&quot;in document?document.currentScript:function(){for(var t=document.getElementsByTagName(&quot;script&quot;),e=t.length;e--;)if(t[e].getAttribute(&quot;cf-hash&quot;))return t[e]}();if(t&amp;&amp;t.previousSibling){var e,r,n,i,c=t.previousSibling,a=c.getAttribute(&quot;data-cfemail&quot;);if(a){for(e=&quot;&quot;,r=parseInt(a.substr(0,2),16),n=2;a.length-n;n+=2)i=parseInt(a.substr(n,2),16)^r,e+=String.fromCharCode(i);e=document.createTextNode(e),c.parentNode.replaceChild(e,c)}}}catch(u){}}();/* ]]&gt; */&lt;/script&gt;\nFormat settings, CABAC : Yes\nFormat settings, ReFrames : 12 frames\nCodec ID : V_MPEG4/ISO/AVC\nDuration : 1h 34mn\nBit rate : 1 632 Kbps\nWidth : 716 pixels\nHeight : 412 pixels\nDisplay aspect ratio : 2.471\nOriginal display aspect ratio : 2.472\nFrame rate mode : Constant\nFrame rate : 25.000 fps\nColor space : YUV\nChroma subsampling : 4:2:0\nBit depth : 8 bits\nScan type : Progressive\nBits/(Pixel*Frame) : 0.221\nStream size : 1.08 GiB (77%)\nWriting library : x264 core 142 r2431 ac76440\nEncoding settings : cabac=1 / ref=12 / deblock=1:-3:-3 / analyse=0x3:0x133 / me=umh / subme=9 / psy=1 / psy_rd=1.00:0.00 / mixed_ref=1 / me_range=24 / chroma_me=1 / trellis=2 / 8x8dct=1 / cqm=0 / deadzone=21,11 / fast_pskip=0 / chroma_qp_offset=-2 / threads=6 / lookahead_threads=1 / sliced_threads=0 / nr=0 / decimate=1 / interlaced=0 / bluray_compat=0 / constrained_intra=0 / bframes=6 / b_pyramid=2 / b_adapt=2 / b_bias=0 / direct=3 / weightb=1 / open_gop=0 / weightp=2 / keyint=250 / keyint_min=25 / scenecut=40 / intra_refresh=0 / rc_lookahead=60 / rc=crf / mbtree=1 / crf=13.3 / qcomp=0.65 / qpmin=0 / qpmax=69 / qpstep=4 / ip_ratio=1.40 / aq=1:1.10\nDefault : Yes\nForced : No\nColor primaries : BT.601 PAL\nTransfer characteristics : BT.709\nMatrix coefficients : BT.601\n\nAudio\nID : 2\nFormat : AC-3\nFormat/Info : Audio Coding 3\nMode extension : CM (complete main)\nFormat settings, Endianness : Big\nCodec ID : A_AC3\nDuration : 1h 34mn\nBit rate mode : Constant\nBit rate : 448 Kbps\nChannel(s) : 6 channels\nChannel positions : Front: L C R, Side: L R, LFE\nSampling rate : 48.0 KHz\nBit depth : 16 bits\nCompression mode : Lossy\nStream size : 304 MiB (21%)\nTitle : Surround\nLanguage : English\nDefault : Yes\nForced : No\n\nMenu\n00:00:00.000 : :Chapter 1\n00:03:16.760 : :Chapter 2\n00:09:42.080 : :Chapter 3\n00:21:18.960 : :Chapter 4\n00:36:18.680 : :Chapter 5\n00:49:08.600 : :Chapter 6\n00:55:17.320 : :Chapter 7\n01:01:50.120 : :Chapter 8\n01:10:35.560 : :Chapter 9\n01:17:42.560 : :Chapter 10\n01:27:39.840 : :Chapter 11\n01:33:00.000 : :Chapter 12\n\n\nNote: Hardcoded Subtitles","torrent":{"xt":"urn:btih:e276d66ab780d7d337a8e4e8fefa45c7de8b1cf2","amp;dn":"Miss+Violence+%282013%29","amp;tr":["udp%3A%2F%2Ftracker.openbittorrent.com%3A80","udp%3A%2F%2Fopen.demonii.com%3A1337","udp%3A%2F%2Ftracker.coppersurfer.tk%3A6969","udp%3A%2F%2Fexodus.desync.com%3A6969"],"infoHash":"e276d66ab780d7d337a8e4e8fefa45c7de8b1cf2","infoHashBuffer":{"type":"Buffer","data":[226,118,214,106,183,128,215,211,55,168,228,232,254,250,69,199,222,139,28,242]},"announce":[],"urlList":[]}}